<svg width="79" height="79" viewBox="0 0 79 79" fill="none" xmlns="http://www.w3.org/2000/svg">
<g clip-path="url(#clip0_13_109)">
<path fill-rule="evenodd" clip-rule="evenodd" d="M9.78558 75.838V9.78533C9.78558 7.19004 10.8166 4.70104 12.6517 2.86589C14.4869 1.03073 16.9759 -0.000244141 19.5712 -0.000244141H58.7135C61.3088 -0.000244141 63.7978 1.03073 65.6329 2.86589C67.4681 4.70104 68.4991 7.19004 68.4991 9.78533V75.838C68.4994 76.2628 68.389 76.6804 68.1789 77.0496C67.9688 77.4189 67.6662 77.727 67.3009 77.9438C66.9355 78.1605 66.52 78.2784 66.0952 78.2858C65.6704 78.2932 65.2511 78.1898 64.8784 77.9859L39.1423 63.9436L13.4062 77.9859C13.0336 78.1898 12.6142 78.2932 12.1894 78.2858C11.7647 78.2784 11.3492 78.1605 10.9838 77.9438C10.6184 77.727 10.3158 77.4189 10.1057 77.0496C9.8956 76.6804 9.78527 76.2628 9.78558 75.838ZM42.2737 14.091H36.0109V53.2333H42.2737V14.091Z" fill="white"/>
</g>
<defs>
<clipPath id="clip0_13_109">
<rect width="78.2846" height="78.2846" fill="white"/>
</clipPath>
</defs>
</svg>
